# xmcd CD database file
#
# Track frame offsets:
#	150
#	17900
#	43112
#	62225
#	78475
#	97262
#	116637
#	128125
#	143775
#	159737
#	180100
#	204837
#	220837
#	250800
#	264325
#	279000
#	299637
#
# Disc length: 4202 seconds
#
# Revision: 0
# Processed by: cddbd v1.4b42PL1 Copyright (c) Steve Scherf et al.
# Submitted via: Feurio! 1.62 - http://www.feurio.com
#
DISCID=f8106811
DTITLE=Rio Reiser - Die Balladen
DYEAR=1900
DGENRE=
TTITLE0=Junimond
TTITLE1=Für immer und Dich
TTITLE2=Nur Dich
TTITLE3=Zauberland
TTITLE4=Zu Hause
TTITLE5=Wohin gehen wir
TTITLE6=Herbst
TTITLE7=Der Junge am Fluss
TTITLE8=Nimmst Du mich mit
TTITLE9=Du bist es
TTITLE10=Stiller Raum
TTITLE11=Nach Hause
TTITLE12=Träume
TTITLE13=Lass mich schlafen
TTITLE14=Dahin
TTITLE15=Junimond (Camelot-Mix)
TTITLE16=König von Deutschland
EXTD=
EXTT0=
EXTT1=
EXTT2=
EXTT3=
EXTT4=
EXTT5=
EXTT6=
EXTT7=
EXTT8=
EXTT9=
EXTT10=
EXTT11=
EXTT12=
EXTT13=
EXTT14=
EXTT15=
EXTT16=
PLAYORDER=
